<svg xmlns="http://www.w3.org/2000/svg" viewBox="0 0 400 300" width="400" height="300" role="img" aria-label="Пионы в шляпной коробке">
  <rect width="400" height="300" fill="#f3e5f5"/>
  <ellipse cx="200" cy="170" rx="95" ry="22" fill="#6d4c41"/><rect x="105" y="170" width="190" height="85" fill="#8d6e63"/><ellipse cx="200" cy="255" rx="95" ry="22" fill="#8d6e63"/><ellipse cx="120" cy="160" rx="28" ry="10" transform="rotate(-20 120 160)" fill="#4caf50"/><ellipse cx="280" cy="160" rx="28" ry="10" transform="rotate(20 280 160)" fill="#4caf50"/><circle cx="150" cy="150" r="34" fill="#f8bbd0"/><circle cx="150" cy="150" r="20" fill="#f48fb1"/><circle cx="200" cy="138" r="40" fill="#f8bbd0"/><circle cx="200" cy="138" r="24" fill="#f48fb1"/><circle cx="250" cy="150" r="34" fill="#f8bbd0"/><circle cx="250" cy="150" r="20" fill="#f48fb1"/><circle cx="175" cy="165" r="26" fill="#f8bbd0"/><circle cx="175" cy="165" r="16" fill="#f48fb1"/><circle cx="228" cy="165" r="26" fill="#f8bbd0"/><circle cx="228" cy="165" r="16" fill="#f48fb1"/>
</svg>
